<mxfile host="app.diagrams.net" modified="2021-05-08T08:04:07.257Z" agent="5.0 (Windows NT 10.0; Win64; x64) AppleWebKit/537.36 (KHTML, like Gecko) Chrome/92.0.4492.0 Safari/537.36 Edg/92.0.881.0" etag="D9qy1i8s0ygtTIFYz_JX" version="14.6.10" type="github">
  <diagram id="kgpKYQtTHZ0yAKxKKP6v" name="Page-1">
    <mxGraphModel dx="1422" dy="794" grid="1" gridSize="10" guides="1" tooltips="1" connect="1" arrows="1" fold="1" page="0" pageScale="1" pageWidth="850" pageHeight="1100" math="0" shadow="0">
      <root>
        <mxCell id="0" />
        <mxCell id="1" parent="0" />
        <mxCell id="KIGTdYXQjyGPoFLAYNH6-1" value="用户" style="shape=umlLifeline;participant=umlActor;perimeter=lifelinePerimeter;whiteSpace=wrap;html=1;container=1;collapsible=0;recursiveResize=0;verticalAlign=top;spacingTop=36;outlineConnect=0;rounded=0;sketch=0;" vertex="1" parent="1">
          <mxGeometry width="20" height="1080" as="geometry" />
        </mxCell>
        <mxCell id="KIGTdYXQjyGPoFLAYNH6-11" value="" style="html=1;points=[];perimeter=orthogonalPerimeter;fillColor=#60a917;strokeColor=#2D7600;fontColor=#ffffff;" vertex="1" parent="KIGTdYXQjyGPoFLAYNH6-1">
          <mxGeometry x="5" y="120" width="10" height="150" as="geometry" />
        </mxCell>
        <mxCell id="KIGTdYXQjyGPoFLAYNH6-13" value="" style="html=1;points=[];perimeter=orthogonalPerimeter;fillColor=#60a917;strokeColor=#2D7600;fontColor=#ffffff;" vertex="1" parent="KIGTdYXQjyGPoFLAYNH6-1">
          <mxGeometry x="5" y="320" width="10" height="520" as="geometry" />
        </mxCell>
        <mxCell id="KIGTdYXQjyGPoFLAYNH6-2" value="&lt;span style=&quot;font-size: 14px&quot;&gt;微平台H5或微信小程序&lt;/span&gt;" style="shape=umlLifeline;perimeter=lifelinePerimeter;whiteSpace=wrap;html=1;container=1;collapsible=0;recursiveResize=0;outlineConnect=0;" vertex="1" parent="1">
          <mxGeometry x="160" width="160" height="1080" as="geometry" />
        </mxCell>
        <mxCell id="KIGTdYXQjyGPoFLAYNH6-3" value="" style="html=1;points=[];perimeter=orthogonalPerimeter;fillColor=#1ba1e2;strokeColor=#006EAF;fontColor=#ffffff;" vertex="1" parent="KIGTdYXQjyGPoFLAYNH6-2">
          <mxGeometry x="75" y="120" width="10" height="140" as="geometry" />
        </mxCell>
        <mxCell id="KIGTdYXQjyGPoFLAYNH6-15" value="" style="html=1;points=[];perimeter=orthogonalPerimeter;fillColor=#1ba1e2;strokeColor=#006EAF;fontColor=#ffffff;" vertex="1" parent="KIGTdYXQjyGPoFLAYNH6-2">
          <mxGeometry x="75" y="320" width="10" height="510" as="geometry" />
        </mxCell>
        <mxCell id="KIGTdYXQjyGPoFLAYNH6-5" value="&lt;div style=&quot;text-align: left&quot;&gt;&lt;span style=&quot;font-size: 14px&quot;&gt;&lt;font color=&quot;#333333&quot;&gt;扫桌台二维码&lt;/font&gt;&lt;/span&gt;&lt;/div&gt;" style="html=1;verticalAlign=bottom;endArrow=block;labelBackgroundColor=none;fontFamily=Verdana;fontSize=12;edgeStyle=elbowEdgeStyle;elbow=vertical;" edge="1" parent="1">
          <mxGeometry x="-0.1041" y="10" relative="1" as="geometry">
            <mxPoint x="16" y="122" as="sourcePoint" />
            <mxPoint x="235" y="122" as="targetPoint" />
            <mxPoint as="offset" />
            <Array as="points">
              <mxPoint x="115" y="122" />
            </Array>
          </mxGeometry>
        </mxCell>
        <mxCell id="KIGTdYXQjyGPoFLAYNH6-6" value="&lt;span style=&quot;font-size: 14px&quot;&gt;微平台API&lt;/span&gt;" style="shape=umlLifeline;perimeter=lifelinePerimeter;whiteSpace=wrap;html=1;container=1;collapsible=0;recursiveResize=0;outlineConnect=0;" vertex="1" parent="1">
          <mxGeometry x="400" width="160" height="1120" as="geometry" />
        </mxCell>
        <mxCell id="KIGTdYXQjyGPoFLAYNH6-8" value="" style="html=1;points=[];perimeter=orthogonalPerimeter;fillColor=#60a917;strokeColor=#2D7600;fontColor=#ffffff;" vertex="1" parent="KIGTdYXQjyGPoFLAYNH6-6">
          <mxGeometry x="75" y="150" width="10" height="80" as="geometry" />
        </mxCell>
        <mxCell id="KIGTdYXQjyGPoFLAYNH6-17" value="" style="html=1;points=[];perimeter=orthogonalPerimeter;fillColor=#60a917;strokeColor=#2D7600;fontColor=#ffffff;" vertex="1" parent="KIGTdYXQjyGPoFLAYNH6-6">
          <mxGeometry x="75" y="360" width="10" height="440" as="geometry" />
        </mxCell>
        <mxCell id="KIGTdYXQjyGPoFLAYNH6-51" value="" style="edgeStyle=elbowEdgeStyle;elbow=horizontal;endArrow=classic;html=1;rounded=0;" edge="1" parent="KIGTdYXQjyGPoFLAYNH6-6">
          <mxGeometry width="50" height="50" relative="1" as="geometry">
            <mxPoint x="86" y="650" as="sourcePoint" />
            <mxPoint x="87" y="740" as="targetPoint" />
            <Array as="points">
              <mxPoint x="230" y="700" />
            </Array>
          </mxGeometry>
        </mxCell>
        <mxCell id="KIGTdYXQjyGPoFLAYNH6-70" value="" style="html=1;points=[];perimeter=orthogonalPerimeter;fillColor=#60a917;strokeColor=#2D7600;fontColor=#ffffff;" vertex="1" parent="KIGTdYXQjyGPoFLAYNH6-6">
          <mxGeometry x="75" y="1020" width="10" height="30" as="geometry" />
        </mxCell>
        <mxCell id="KIGTdYXQjyGPoFLAYNH6-9" value="&lt;div style=&quot;text-align: left&quot;&gt;&lt;font color=&quot;#333333&quot;&gt;&lt;span style=&quot;font-size: 14px&quot;&gt;调用菜品等相关接口&lt;/span&gt;&lt;/font&gt;&lt;/div&gt;" style="html=1;verticalAlign=bottom;endArrow=block;labelBackgroundColor=none;fontFamily=Verdana;fontSize=12;edgeStyle=elbowEdgeStyle;elbow=vertical;" edge="1" parent="1">
          <mxGeometry x="-0.1041" y="10" relative="1" as="geometry">
            <mxPoint x="245" y="152" as="sourcePoint" />
            <mxPoint x="475" y="152" as="targetPoint" />
            <mxPoint as="offset" />
            <Array as="points">
              <mxPoint x="355" y="152" />
            </Array>
          </mxGeometry>
        </mxCell>
        <mxCell id="KIGTdYXQjyGPoFLAYNH6-10" value="&lt;div style=&quot;text-align: left ; font-size: 14px&quot;&gt;返回菜品等相关数据&lt;/div&gt;" style="html=1;verticalAlign=bottom;endArrow=block;labelBackgroundColor=none;fontFamily=Verdana;fontSize=14;edgeStyle=elbowEdgeStyle;elbow=vertical;" edge="1" parent="1">
          <mxGeometry x="0.4023" y="-13" relative="1" as="geometry">
            <mxPoint x="285" y="224" as="sourcePoint" />
            <mxPoint x="245" y="224" as="targetPoint" />
            <mxPoint as="offset" />
            <Array as="points">
              <mxPoint x="480.5" y="224" />
            </Array>
          </mxGeometry>
        </mxCell>
        <mxCell id="KIGTdYXQjyGPoFLAYNH6-12" value="&lt;div style=&quot;text-align: left ; font-size: 14px&quot;&gt;返回点餐页面&lt;/div&gt;" style="html=1;verticalAlign=bottom;endArrow=block;labelBackgroundColor=none;fontFamily=Verdana;fontSize=14;edgeStyle=elbowEdgeStyle;elbow=vertical;" edge="1" parent="1">
          <mxGeometry x="0.6019" y="-10" relative="1" as="geometry">
            <mxPoint x="50" y="260" as="sourcePoint" />
            <mxPoint x="18" y="260" as="targetPoint" />
            <mxPoint as="offset" />
            <Array as="points">
              <mxPoint x="240" y="260" />
            </Array>
          </mxGeometry>
        </mxCell>
        <mxCell id="KIGTdYXQjyGPoFLAYNH6-14" value="&lt;div style=&quot;text-align: left ; font-size: 14px&quot;&gt;&lt;font color=&quot;#333333&quot;&gt;用户点餐下单且用会员卡支付&lt;/font&gt;&lt;/div&gt;" style="html=1;verticalAlign=bottom;endArrow=block;labelBackgroundColor=none;fontFamily=Verdana;fontSize=14;edgeStyle=elbowEdgeStyle;elbow=vertical;" edge="1" parent="1" target="KIGTdYXQjyGPoFLAYNH6-2">
          <mxGeometry x="0.1329" y="10" relative="1" as="geometry">
            <mxPoint x="10" y="320" as="sourcePoint" />
            <mxPoint x="225" y="320" as="targetPoint" />
            <mxPoint as="offset" />
          </mxGeometry>
        </mxCell>
        <mxCell id="KIGTdYXQjyGPoFLAYNH6-16" value="&lt;div style=&quot;text-align: left&quot;&gt;&lt;font color=&quot;#333333&quot;&gt;&lt;span style=&quot;font-size: 14px&quot;&gt;调用下单接口&lt;/span&gt;&lt;/font&gt;&lt;/div&gt;" style="html=1;verticalAlign=bottom;endArrow=block;labelBackgroundColor=none;fontFamily=Verdana;fontSize=12;edgeStyle=elbowEdgeStyle;elbow=vertical;" edge="1" parent="1">
          <mxGeometry x="-0.1041" y="10" relative="1" as="geometry">
            <mxPoint x="250" y="359" as="sourcePoint" />
            <mxPoint x="480" y="359" as="targetPoint" />
            <mxPoint as="offset" />
            <Array as="points">
              <mxPoint x="360" y="359" />
            </Array>
          </mxGeometry>
        </mxCell>
        <mxCell id="KIGTdYXQjyGPoFLAYNH6-18" value="&lt;span style=&quot;font-size: 14px&quot;&gt;微平台WCF服务&lt;/span&gt;" style="shape=umlLifeline;perimeter=lifelinePerimeter;whiteSpace=wrap;html=1;container=1;collapsible=0;recursiveResize=0;outlineConnect=0;" vertex="1" parent="1">
          <mxGeometry x="640" width="160" height="1120" as="geometry" />
        </mxCell>
        <mxCell id="KIGTdYXQjyGPoFLAYNH6-23" value="" style="html=1;points=[];perimeter=orthogonalPerimeter;fillColor=#1ba1e2;strokeColor=#006EAF;fontColor=#ffffff;" vertex="1" parent="KIGTdYXQjyGPoFLAYNH6-18">
          <mxGeometry x="75" y="450" width="10" height="150" as="geometry" />
        </mxCell>
        <mxCell id="KIGTdYXQjyGPoFLAYNH6-21" value="&lt;span style=&quot;font-size: 14px&quot;&gt;微平台助手：WCF客户端&lt;/span&gt;" style="shape=umlLifeline;perimeter=lifelinePerimeter;whiteSpace=wrap;html=1;container=1;collapsible=0;recursiveResize=0;outlineConnect=0;" vertex="1" parent="1">
          <mxGeometry x="880" width="170" height="1120" as="geometry" />
        </mxCell>
        <mxCell id="KIGTdYXQjyGPoFLAYNH6-33" value="" style="edgeStyle=orthogonalEdgeStyle;curved=0;rounded=1;sketch=0;orthogonalLoop=1;jettySize=auto;html=1;" edge="1" parent="KIGTdYXQjyGPoFLAYNH6-21">
          <mxGeometry relative="1" as="geometry">
            <mxPoint x="-150" y="557" as="targetPoint" />
            <mxPoint x="80" y="557" as="sourcePoint" />
          </mxGeometry>
        </mxCell>
        <mxCell id="KIGTdYXQjyGPoFLAYNH6-25" value="" style="html=1;points=[];perimeter=orthogonalPerimeter;fillColor=#60a917;strokeColor=#2D7600;fontColor=#ffffff;" vertex="1" parent="KIGTdYXQjyGPoFLAYNH6-21">
          <mxGeometry x="80" y="456" width="10" height="120" as="geometry" />
        </mxCell>
        <mxCell id="KIGTdYXQjyGPoFLAYNH6-22" value="&lt;div style=&quot;text-align: left&quot;&gt;&lt;font color=&quot;#333333&quot;&gt;&lt;span style=&quot;font-size: 14px&quot;&gt;发送下单的TCP命令&lt;/span&gt;&lt;/font&gt;&lt;/div&gt;" style="html=1;verticalAlign=bottom;endArrow=block;labelBackgroundColor=none;fontFamily=Verdana;fontSize=12;edgeStyle=elbowEdgeStyle;elbow=vertical;" edge="1" parent="1" target="KIGTdYXQjyGPoFLAYNH6-52">
          <mxGeometry x="-0.1043" y="10" relative="1" as="geometry">
            <mxPoint x="485" y="790" as="sourcePoint" />
            <mxPoint x="715" y="790" as="targetPoint" />
            <mxPoint as="offset" />
            <Array as="points">
              <mxPoint x="595" y="790" />
            </Array>
          </mxGeometry>
        </mxCell>
        <mxCell id="KIGTdYXQjyGPoFLAYNH6-24" value="&lt;div style=&quot;text-align: left&quot;&gt;&lt;font color=&quot;#333333&quot;&gt;&lt;span style=&quot;font-size: 14px&quot;&gt;调用会员扣款服务&lt;/span&gt;&lt;/font&gt;&lt;/div&gt;" style="html=1;verticalAlign=bottom;endArrow=block;labelBackgroundColor=none;fontFamily=Verdana;fontSize=12;edgeStyle=elbowEdgeStyle;elbow=vertical;" edge="1" parent="1">
          <mxGeometry x="-0.1041" y="10" relative="1" as="geometry">
            <mxPoint x="730" y="460" as="sourcePoint" />
            <mxPoint x="960" y="460" as="targetPoint" />
            <mxPoint as="offset" />
            <Array as="points">
              <mxPoint x="840" y="460" />
            </Array>
          </mxGeometry>
        </mxCell>
        <mxCell id="KIGTdYXQjyGPoFLAYNH6-32" value="执行会员扣款业务" style="text;html=1;align=center;verticalAlign=middle;resizable=0;points=[];autosize=1;strokeColor=none;" vertex="1" parent="1">
          <mxGeometry x="970" y="493" width="110" height="20" as="geometry" />
        </mxCell>
        <mxCell id="KIGTdYXQjyGPoFLAYNH6-35" value="&lt;font color=&quot;#333333&quot; face=&quot;verdana&quot;&gt;&lt;span style=&quot;font-size: 14px&quot;&gt;返回会员扣款成功&lt;/span&gt;&lt;/font&gt;" style="text;whiteSpace=wrap;html=1;" vertex="1" parent="1">
          <mxGeometry x="770" y="513" width="140" height="30" as="geometry" />
        </mxCell>
        <mxCell id="KIGTdYXQjyGPoFLAYNH6-37" value="" style="edgeStyle=orthogonalEdgeStyle;curved=0;rounded=1;sketch=0;orthogonalLoop=1;jettySize=auto;html=1;" edge="1" parent="1">
          <mxGeometry relative="1" as="geometry">
            <mxPoint x="490" y="590" as="targetPoint" />
            <mxPoint x="710" y="590" as="sourcePoint" />
          </mxGeometry>
        </mxCell>
        <mxCell id="KIGTdYXQjyGPoFLAYNH6-38" value="&lt;font color=&quot;#333333&quot; face=&quot;verdana&quot;&gt;&lt;span style=&quot;font-size: 14px&quot;&gt;返回会员扣款成功&lt;/span&gt;&lt;/font&gt;" style="text;whiteSpace=wrap;html=1;" vertex="1" parent="1">
          <mxGeometry x="530" y="550" width="140" height="30" as="geometry" />
        </mxCell>
        <mxCell id="KIGTdYXQjyGPoFLAYNH6-40" value="" style="edgeStyle=elbowEdgeStyle;elbow=horizontal;endArrow=classic;html=1;rounded=0;" edge="1" parent="1">
          <mxGeometry width="50" height="50" relative="1" as="geometry">
            <mxPoint x="490" y="370" as="sourcePoint" />
            <mxPoint x="490" y="410" as="targetPoint" />
            <Array as="points">
              <mxPoint x="680" y="390" />
            </Array>
          </mxGeometry>
        </mxCell>
        <mxCell id="KIGTdYXQjyGPoFLAYNH6-41" value="&lt;font color=&quot;#333333&quot; face=&quot;verdana&quot;&gt;&lt;span style=&quot;font-size: 14px&quot;&gt;验证相关信息及保存订单&lt;/span&gt;&lt;/font&gt;" style="text;whiteSpace=wrap;html=1;" vertex="1" parent="1">
          <mxGeometry x="500" y="375" width="180" height="30" as="geometry" />
        </mxCell>
        <mxCell id="KIGTdYXQjyGPoFLAYNH6-43" value="" style="edgeStyle=elbowEdgeStyle;elbow=horizontal;endArrow=classic;html=1;rounded=0;entryX=1;entryY=0.692;entryDx=0;entryDy=0;entryPerimeter=0;exitX=0.045;exitY=-0.15;exitDx=0;exitDy=0;exitPerimeter=0;" edge="1" parent="1">
          <mxGeometry width="50" height="50" relative="1" as="geometry">
            <mxPoint x="974.9499999999998" y="480" as="sourcePoint" />
            <mxPoint x="970" y="532.04" as="targetPoint" />
            <Array as="points">
              <mxPoint x="1100" y="493" />
            </Array>
          </mxGeometry>
        </mxCell>
        <mxCell id="KIGTdYXQjyGPoFLAYNH6-44" value="" style="edgeStyle=orthogonalEdgeStyle;rounded=0;sketch=0;jumpStyle=sharp;orthogonalLoop=1;jettySize=auto;html=1;" edge="1" parent="1">
          <mxGeometry relative="1" as="geometry">
            <mxPoint x="240" y="791" as="targetPoint" />
            <mxPoint x="473" y="791" as="sourcePoint" />
          </mxGeometry>
        </mxCell>
        <mxCell id="KIGTdYXQjyGPoFLAYNH6-45" value="&lt;font color=&quot;#333333&quot; face=&quot;verdana&quot;&gt;&lt;span style=&quot;font-size: 14px&quot;&gt;返回订单信息&lt;/span&gt;&lt;/font&gt;" style="text;whiteSpace=wrap;html=1;" vertex="1" parent="1">
          <mxGeometry x="310" y="760" width="110" height="30" as="geometry" />
        </mxCell>
        <mxCell id="KIGTdYXQjyGPoFLAYNH6-46" value="" style="edgeStyle=orthogonalEdgeStyle;rounded=0;sketch=0;jumpStyle=sharp;orthogonalLoop=1;jettySize=auto;html=1;" edge="1" parent="1">
          <mxGeometry relative="1" as="geometry">
            <mxPoint x="17" y="820" as="targetPoint" />
            <mxPoint x="237" y="820" as="sourcePoint" />
          </mxGeometry>
        </mxCell>
        <mxCell id="KIGTdYXQjyGPoFLAYNH6-49" value="&lt;font color=&quot;#333333&quot; face=&quot;verdana&quot;&gt;&lt;span style=&quot;font-size: 14px&quot;&gt;1. 更新订单&lt;br&gt;&lt;br&gt;2.&amp;nbsp;更新支付订单&lt;br&gt;&lt;/span&gt;&lt;/font&gt;" style="text;whiteSpace=wrap;html=1;" vertex="1" parent="1">
          <mxGeometry x="500" y="660" width="110" height="60" as="geometry" />
        </mxCell>
        <mxCell id="KIGTdYXQjyGPoFLAYNH6-52" value="&lt;span style=&quot;font-size: 14px&quot;&gt;微平台TCP服务&lt;/span&gt;" style="shape=umlLifeline;perimeter=lifelinePerimeter;whiteSpace=wrap;html=1;container=1;collapsible=0;recursiveResize=0;outlineConnect=0;" vertex="1" parent="1">
          <mxGeometry x="1160" width="160" height="1120" as="geometry" />
        </mxCell>
        <mxCell id="KIGTdYXQjyGPoFLAYNH6-57" value="" style="html=1;points=[];perimeter=orthogonalPerimeter;fillColor=#1ba1e2;strokeColor=#006EAF;fontColor=#ffffff;" vertex="1" parent="KIGTdYXQjyGPoFLAYNH6-52">
          <mxGeometry x="80" y="790" width="10" height="50" as="geometry" />
        </mxCell>
        <mxCell id="KIGTdYXQjyGPoFLAYNH6-55" value="&lt;span style=&quot;font-size: 14px&quot;&gt;好餐谋V11门店ERP&lt;/span&gt;" style="shape=umlLifeline;perimeter=lifelinePerimeter;whiteSpace=wrap;html=1;container=1;collapsible=0;recursiveResize=0;outlineConnect=0;" vertex="1" parent="1">
          <mxGeometry x="1400" width="160" height="1120" as="geometry" />
        </mxCell>
        <mxCell id="KIGTdYXQjyGPoFLAYNH6-56" value="&lt;div style=&quot;text-align: left&quot;&gt;&lt;font color=&quot;#333333&quot;&gt;&lt;span style=&quot;font-size: 14px&quot;&gt;调用会员扣款服务&lt;/span&gt;&lt;/font&gt;&lt;/div&gt;" style="html=1;verticalAlign=bottom;endArrow=block;labelBackgroundColor=none;fontFamily=Verdana;fontSize=12;edgeStyle=elbowEdgeStyle;elbow=vertical;" edge="1" parent="1">
          <mxGeometry x="-0.1043" y="10" relative="1" as="geometry">
            <mxPoint x="489" y="462" as="sourcePoint" />
            <mxPoint x="719" y="462" as="targetPoint" />
            <mxPoint as="offset" />
            <Array as="points">
              <mxPoint x="599" y="462" />
            </Array>
          </mxGeometry>
        </mxCell>
        <mxCell id="KIGTdYXQjyGPoFLAYNH6-69" value="" style="edgeStyle=orthogonalEdgeStyle;rounded=0;sketch=0;jumpStyle=sharp;orthogonalLoop=1;jettySize=auto;html=1;" edge="1" parent="1">
          <mxGeometry relative="1" as="geometry">
            <mxPoint x="480" y="1022" as="targetPoint" />
            <mxPoint x="1475" y="1022" as="sourcePoint" />
          </mxGeometry>
        </mxCell>
        <mxCell id="KIGTdYXQjyGPoFLAYNH6-59" value="" style="html=1;points=[];perimeter=orthogonalPerimeter;fillColor=#60a917;strokeColor=#2D7600;fontColor=#ffffff;" vertex="1" parent="1">
          <mxGeometry x="1475" y="834" width="10" height="206" as="geometry" />
        </mxCell>
        <mxCell id="KIGTdYXQjyGPoFLAYNH6-60" value="&lt;font color=&quot;#333333&quot; face=&quot;verdana&quot;&gt;&lt;span style=&quot;font-size: 14px&quot;&gt;返回成功页面&lt;/span&gt;&lt;/font&gt;" style="text;whiteSpace=wrap;html=1;" vertex="1" parent="1">
          <mxGeometry x="60" y="780" width="110" height="30" as="geometry" />
        </mxCell>
        <mxCell id="KIGTdYXQjyGPoFLAYNH6-58" value="" style="edgeStyle=orthogonalEdgeStyle;rounded=0;sketch=0;jumpStyle=sharp;orthogonalLoop=1;jettySize=auto;html=1;entryX=0;entryY=0.05;entryDx=0;entryDy=0;entryPerimeter=0;" edge="1" parent="1">
          <mxGeometry relative="1" as="geometry">
            <mxPoint x="1475" y="838" as="targetPoint" />
            <mxPoint x="1250" y="839" as="sourcePoint" />
            <Array as="points">
              <mxPoint x="1290" y="839" />
            </Array>
          </mxGeometry>
        </mxCell>
        <mxCell id="KIGTdYXQjyGPoFLAYNH6-61" value="&lt;span style=&quot;color: rgb(51, 51, 51); font-family: verdana; font-size: 14px; font-style: normal; font-weight: 400; letter-spacing: normal; text-align: left; text-indent: 0px; text-transform: none; word-spacing: 0px; background-color: rgb(255, 255, 255); display: inline; float: none;&quot;&gt;发送下单的TCP命令&lt;/span&gt;" style="text;whiteSpace=wrap;html=1;" vertex="1" parent="1">
          <mxGeometry x="1290" y="783" width="150" height="30" as="geometry" />
        </mxCell>
        <mxCell id="KIGTdYXQjyGPoFLAYNH6-62" value="" style="edgeStyle=elbowEdgeStyle;elbow=horizontal;endArrow=classic;html=1;rounded=0;entryX=1.2;entryY=0.49;entryDx=0;entryDy=0;entryPerimeter=0;" edge="1" parent="1" target="KIGTdYXQjyGPoFLAYNH6-59">
          <mxGeometry width="50" height="50" relative="1" as="geometry">
            <mxPoint x="1488" y="880" as="sourcePoint" />
            <mxPoint x="1580" y="910" as="targetPoint" />
            <Array as="points">
              <mxPoint x="1700" y="910" />
            </Array>
          </mxGeometry>
        </mxCell>
        <mxCell id="KIGTdYXQjyGPoFLAYNH6-63" value="&lt;font color=&quot;#333333&quot; face=&quot;verdana&quot;&gt;&lt;span style=&quot;font-size: 14px&quot;&gt;把线上订单转换线下中间订单&lt;/span&gt;&lt;/font&gt;" style="text;whiteSpace=wrap;html=1;" vertex="1" parent="1">
          <mxGeometry x="1490" y="890" width="200" height="30" as="geometry" />
        </mxCell>
        <mxCell id="KIGTdYXQjyGPoFLAYNH6-64" value="" style="edgeStyle=elbowEdgeStyle;elbow=horizontal;endArrow=classic;html=1;rounded=0;exitX=1.2;exitY=0.633;exitDx=0;exitDy=0;exitPerimeter=0;" edge="1" parent="1" source="KIGTdYXQjyGPoFLAYNH6-59" target="KIGTdYXQjyGPoFLAYNH6-55">
          <mxGeometry width="50" height="50" relative="1" as="geometry">
            <mxPoint x="1510" y="1010" as="sourcePoint" />
            <mxPoint x="1650" y="970" as="targetPoint" />
            <Array as="points">
              <mxPoint x="1610" y="1000" />
            </Array>
          </mxGeometry>
        </mxCell>
        <mxCell id="KIGTdYXQjyGPoFLAYNH6-65" value="&lt;font color=&quot;#333333&quot; face=&quot;verdana&quot;&gt;&lt;span style=&quot;font-size: 14px&quot;&gt;把中间订单转换正式订单&lt;/span&gt;&lt;/font&gt;" style="text;whiteSpace=wrap;html=1;" vertex="1" parent="1">
          <mxGeometry x="1500" y="970" width="200" height="30" as="geometry" />
        </mxCell>
        <mxCell id="KIGTdYXQjyGPoFLAYNH6-71" value="&lt;font color=&quot;#333333&quot; face=&quot;verdana&quot;&gt;&lt;span style=&quot;font-size: 14px&quot;&gt;更新订单状态&lt;/span&gt;&lt;/font&gt;" style="text;whiteSpace=wrap;html=1;" vertex="1" parent="1">
          <mxGeometry x="780" y="980" width="150" height="30" as="geometry" />
        </mxCell>
      </root>
    </mxGraphModel>
  </diagram>
</mxfile>
